<mxfile host="65bd71144e">
    <diagram id="St3KooMB8bdpVELIS1Yk" name="Page-1">
        <mxGraphModel dx="1096" dy="486" grid="1" gridSize="10" guides="1" tooltips="1" connect="1" arrows="1" fold="1" page="1" pageScale="1" pageWidth="1654" pageHeight="2336" math="0" shadow="0">
            <root>
                <mxCell id="0"/>
                <mxCell id="1" parent="0"/>
                <mxCell id="2" value="" style="rounded=0;whiteSpace=wrap;html=1;" parent="1" vertex="1">
                    <mxGeometry x="530" y="110" width="440" height="460" as="geometry"/>
                </mxCell>
                <mxCell id="3" value="Date&lt;br&gt;String&lt;br&gt;window&lt;br&gt;message:&quot;Hello World&quot;&lt;br&gt;foo:&amp;nbsp;&lt;span style=&quot;text-align: center&quot;&gt;0xa00&lt;br&gt;test: 0xb00&lt;br&gt;&lt;/span&gt;" style="rounded=0;whiteSpace=wrap;html=1;align=left;" parent="1" vertex="1">
                    <mxGeometry x="550" y="160" width="150" height="100" as="geometry"/>
                </mxCell>
                <mxCell id="4" value="GO对象(0x100)" style="text;html=1;strokeColor=none;fillColor=none;align=center;verticalAlign=middle;whiteSpace=wrap;rounded=0;" parent="1" vertex="1">
                    <mxGeometry x="550" y="130" width="50" height="20" as="geometry"/>
                </mxCell>
                <mxCell id="5" value="" style="rounded=0;whiteSpace=wrap;html=1;align=left;" parent="1" vertex="1">
                    <mxGeometry x="180" y="110" width="250" height="460" as="geometry"/>
                </mxCell>
                <mxCell id="6" value="ECStack(调用栈)" style="text;html=1;align=center;verticalAlign=middle;resizable=0;points=[];autosize=1;strokeColor=none;" parent="1" vertex="1">
                    <mxGeometry x="180" y="80" width="110" height="20" as="geometry"/>
                </mxCell>
                <mxCell id="7" value="" style="rounded=0;whiteSpace=wrap;html=1;align=left;" parent="1" vertex="1">
                    <mxGeometry x="190" y="430" width="230" height="130" as="geometry"/>
                </mxCell>
                <mxCell id="8" value="全局执行上下文" style="text;html=1;strokeColor=none;fillColor=none;align=center;verticalAlign=middle;whiteSpace=wrap;rounded=0;" parent="1" vertex="1">
                    <mxGeometry x="200" y="400" width="100" height="20" as="geometry"/>
                </mxCell>
                <mxCell id="9" value="VO: GO" style="rounded=0;whiteSpace=wrap;html=1;align=left;" parent="1" vertex="1">
                    <mxGeometry x="200" y="440" width="210" height="40" as="geometry"/>
                </mxCell>
                <mxCell id="10" value="" style="rounded=0;whiteSpace=wrap;html=1;align=left;" parent="1" vertex="1">
                    <mxGeometry x="550" y="310" width="170" height="70" as="geometry"/>
                </mxCell>
                <mxCell id="11" value="foo函数对象(0xa00)" style="text;html=1;strokeColor=none;fillColor=none;align=center;verticalAlign=middle;whiteSpace=wrap;rounded=0;" parent="1" vertex="1">
                    <mxGeometry x="560" y="280" width="80" height="20" as="geometry"/>
                </mxCell>
                <mxCell id="12" value="parentScope: GO(0x100)" style="rounded=0;whiteSpace=wrap;html=1;align=left;" parent="1" vertex="1">
                    <mxGeometry x="560" y="315" width="150" height="25" as="geometry"/>
                </mxCell>
                <mxCell id="13" value="函数的执行体" style="rounded=0;whiteSpace=wrap;html=1;align=left;" parent="1" vertex="1">
                    <mxGeometry x="560" y="350" width="150" height="25" as="geometry"/>
                </mxCell>
                <mxCell id="14" value="" style="endArrow=classic;html=1;entryX=0.122;entryY=0.002;entryDx=0;entryDy=0;entryPerimeter=0;" parent="1" target="10" edge="1">
                    <mxGeometry width="50" height="50" relative="1" as="geometry">
                        <mxPoint x="590" y="240" as="sourcePoint"/>
                        <mxPoint x="640" y="190" as="targetPoint"/>
                    </mxGeometry>
                </mxCell>
                <mxCell id="15" value="" style="endArrow=classic;html=1;entryX=0.5;entryY=1;entryDx=0;entryDy=0;" parent="1" target="3" edge="1">
                    <mxGeometry width="50" height="50" relative="1" as="geometry">
                        <mxPoint x="644.63" y="315" as="sourcePoint"/>
                        <mxPoint x="625.37" y="385.14" as="targetPoint"/>
                    </mxGeometry>
                </mxCell>
                <mxCell id="16" value="" style="rounded=0;whiteSpace=wrap;html=1;align=left;" parent="1" vertex="1">
                    <mxGeometry x="770" y="307.5" width="170" height="70" as="geometry"/>
                </mxCell>
                <mxCell id="17" value="test函数对象(0xb00)" style="text;html=1;strokeColor=none;fillColor=none;align=center;verticalAlign=middle;whiteSpace=wrap;rounded=0;" parent="1" vertex="1">
                    <mxGeometry x="780" y="277.5" width="80" height="20" as="geometry"/>
                </mxCell>
                <mxCell id="18" value="parentScope: GO(0x100)" style="rounded=0;whiteSpace=wrap;html=1;align=left;" parent="1" vertex="1">
                    <mxGeometry x="780" y="312.5" width="150" height="25" as="geometry"/>
                </mxCell>
                <mxCell id="19" value="函数的执行体" style="rounded=0;whiteSpace=wrap;html=1;align=left;" parent="1" vertex="1">
                    <mxGeometry x="780" y="347.5" width="150" height="25" as="geometry"/>
                </mxCell>
                <mxCell id="20" value="" style="endArrow=classic;html=1;entryX=0.084;entryY=-0.2;entryDx=0;entryDy=0;entryPerimeter=0;" parent="1" target="18" edge="1">
                    <mxGeometry width="50" height="50" relative="1" as="geometry">
                        <mxPoint x="600" y="250" as="sourcePoint"/>
                        <mxPoint x="580.74" y="320.14" as="targetPoint"/>
                    </mxGeometry>
                </mxCell>
                <mxCell id="21" value="" style="endArrow=classic;html=1;entryX=1;entryY=0.75;entryDx=0;entryDy=0;" parent="1" target="3" edge="1">
                    <mxGeometry width="50" height="50" relative="1" as="geometry">
                        <mxPoint x="864.8100000000002" y="325" as="sourcePoint"/>
                        <mxPoint x="845.1800000000001" y="270" as="targetPoint"/>
                    </mxGeometry>
                </mxCell>
                <mxCell id="22" value="" style="shape=image;verticalLabelPosition=bottom;labelBackgroundColor=#ffffff;verticalAlign=top;aspect=fixed;imageAspect=0;image=data:image/png,iVBORw0KGgoAAAANSUhEUgAAAPQAAAEMCAYAAADzmZs+AAAgAElEQVR4nO3de1BUd5738feO7mjUbhhtxHgjChouaoak4gWJFy6JJqxJhCURs1M1M5J2yZNsymRxXCZakvC4MiY7mzyytmZnq+YZMeOIcV0m0XBxNF4wViRRUKOgomJAkEC3RJmReZ4/+n7h0hfo5vB9VU0Vffp0n59T+fTvcs75nr+ZOXPm/0MMOPfudTB8+DB/N0MEmB/4uwFCCN8Z2tbW5u82eGTEiBH+boJfDRnyA/7yl7/4uxkiwEgPLYSCDPV3A7z1/fff+7sJQgQM6aGFUBAJtOhnHZQdbGZXov3WzI3N1BV0+KdJCvI3kydPHpCnrcyLYuYht/qlA0RPtb7fULyEq6f90bKeDVuyh9jZozB8sZnqA4f83RzIepXytDDr65oDJLxc2gcH6mTX7nrimkMJy3I85dZB2cFGxlZMYOaGIV4fKb/gGi+EAwTz+6fUZHv9jQOD53PoJ9byn6/EMtJQyQeZmznmw0a5a9iSPURPreVc7ivo/dgOyOSh9akQwD8mTpJXsj8tjEt73kRb0LeHyi+oJ44xvOMUZoBhJOaP4Wx2PWXaySTqvDiQVs8L4YMryGYeDLnns3bHR3z0E7h41fcNct9igqePwvDFHj+Hufc6DqRRkbskIHrnxEURjGqrZHcfh5nEdpaGQ03ZSHZ0tU/ZSD6thYjEdjK9OFTm+D9D7bBBF2bwINDz//lnTL/4AS9mbqa+L1okFCk/9TbqtjF81EPPm100Bn3QbV7U9k+7lMbtIfexX/3cr8Nri1nvMuvJKdbXs9cyd/Za49+tX1D5/no6TEPgkXZzVYdh8aNbmZsC5z68zaRVs1GZ9nI1BzfPfS3MxxmfS4zNZ0k5wLgUh30wHyvc8nHX8/zFhL62linB1i12c2032tu1JHTlS5hmeR1LTnksOcajcXLTRtaVGN9ZvX0L6RE2H3WaX0ew6ePVzAmybrlzYhvLcmps9ulkkgb054d33TublQ2nSgszxncC3s+lB5uBex76zBucOQPffz+H0NfWornozQJTONGr4FzuEvSYgpuylZbT1jm5cdHtDlc+XELjTYeP31xPdS70OIc+/QoVp232c2IKc0sRFe+b/tMfn0vMqrXEgM2/r+f2dq8UbYIxlIl5G8iJriHv+Z2UOey1evsW0kMqyUswv2f8ISjfjinUpjA3HSDheVPIk1eyf91q9ufZhvo+Y4Pg1s3eBHQI15shLuQ+ngW6k4So79Gf/5EHnx345LQVAHe48qE1DB23Gu3fHp/LpKnQUJzmHGZfejSNKcF3uFJu04/dXE/NF3dQTV+MdSmph/b6QvJKno6ASyW2QS9Fu6cOIqJYDZC1lDlBBk7+wabHLtnJv58wMCp6DpYzU4n3Gevu8TX33ZxHd7Jr9zXqDn4Husk+WSkfiCTQvXaHuw39cZxG7rr60QgeQ//fW2Wg5ZKr7aMJSzb/3UJdiYtdgkZbh/RlQ7nl7qGbh/Y8PLczhBXpkwl76kegvcbZjZ3uHlERJNADRettAueyiy5CbKutBetvwVButcHY8b0JmWm+3eTpbHAI5edHoA657+HnBzaFB7qGu62g0phXdYxz13Hufs3NQzS3jmLKqq2oe3G8cdEennQ5/RUNhBP9ks3nx+cSMXsUDUfX92+gS05S3aZiTtZK69CZJHRpYdw58SnbAArOc4kw0rcnWT+XvJJ/mqdyGKob58XqqHs9D6MT7zEjaARVRwbnkNlb7v8M/uRf+ejph2w2xPLqRx/xKu1Ubv05mz/3XeO8d4jGPYvRrEplrmkRqqF4M1fi1/KAu9/z/iHuvnSA6PUHrJttV7C7OJ7tPo5Xs1lWwy8XUfG7HcAOruYC620+j7+ueqth3fPb2PTxapsVcMcV7FK0CRgXysqXWD7p6iKV7KIxLM2+zYvakezo5tRV5oK7qNseoNxxhU70imIu/RSBL7/gGi9oxvBOehcXlyS2czb7Nrf2enelWObGZn4ZonJxeanyKXzILQJJdtYEjnObX7q8CaODsuzbUDHBu8s+gR03fwjhBqcbQAYDCbToR0NYkR5KjYuwZW40EFEb6pvTTTo171RAXPY16g7qyff+GwcMGXILoSAD90oxk8FeW0wIWzLkFkJBBnQPLcNtIewN6EA7GflXcl7T8+Ij36P+4X3ofICmiyref284v73t78YJ0fcG9KKYXQ898j67PmgkLtjF5YXto/lg9Si2tPdf+4TwB8XMoTNfa3UdZoCRLbz85uC8tlcMLgoJ9H2entn9fHrYw/d4s59aI4S/KGQO3Yl6eA+7DP+r+/fkin6i5q3MFB5TX+e/3/2c2oQU1sTCl78r5m1Xt3rPeoJ9yZOsr+s+57k9133Wmp+mZfBsmN54/FDjsS6XFLLmjM8O0Wc8CrRmfgapMywFdzBUFVF4rNlnjXLfEPT3gO5Cfe8H7t+TK/qJnhvfwWPd38pmFBrDzj4OWG2LHsJ63i8QuT/kjkohdYaewzodOp0O3d5qmJFKSlQftK7XhvLJ1yO73aPjm+Fs6afWiL6zIGYKI/Vfs28A9Jb+4H6gzxej0xVzwfy66QLXDDBhaqRPG+auHf8niEO3uri7pnUMv9qikNmFQtW26EHfQi1wpLkNaONGH1RW6g274ze20I6e7/zUFnf54LSVhviMVGLaDqP744Wed/cRp9NWAJM7KMtvJOKHthvVHPhFMNqLrr7FVJQPx/uau64Wai2OcIcrH9rUGBufS8yqaJo/TONugvW+Z3eejhEaHsXctJ9zo/pLQsOjGRE8GoDWhuuU6v7Vab+/HW68q/uv9+9ztnQfl04eQh3yIPEZWTRfr+XBaTP42+EPcO3sKcvfF0+UceazvQBMm7OYmUnP8YOhxh+771tbOFpYgL7p2161t/9M4r03nmCqy/f0dnNt4/zX5m2n+bV5vm7d0l5ZzMrygVLVvXved1shkUxWQX1l/4W5S9eG8WU9TBoZzHU9oO4g4t4DvOMyzACHaDyaxpSUaILHYw3noz9mHLWcswRxMaGv/ZiW3CWYny2gfukA0au2ctfuaR2jmLLqAIYvNlPxu0OmkruvEHrmkFvFBac8Fm8Jnjl0s55czpnP9qIOeZCZSc9Ssec/aaw9D0CS9hdEL3oGfXMDd/WtAEyMiuVs6T7CfjyHyTMf5+KJMsZOmc7YKdMBa5hrTh22BDxJ+wviM7J6H+qEjex+83FGuXrv8l6e/l8f9v4f3a3rrHm3EIAFCSmsCb/CezuqOeKw10/TMnj2R1/z3rvm94w/BPvSzKE2hfm7z3luhynkoTHsfCmFnSgj1F6etookZXkMKkM1Fed90yBfuH5STWK2msSTw6ATul3/PL2HK62j0MxabNmkjg6Hy1/ZBPUQje/bl8jVn6t1+XV2PfLpr2hgFA+4WfPo5jdnLCHTNzfQed/6YHd907eU6v7VEmaAW1ecf7H0zd9y6aSxHa0N1y3fZxb24znom7+121731Un+dvgDhPZ2+lS+gfSnn+ZpV//zWZh7KTSGpDC4fNI26NdZU3Idwh7ipwCzHuExtZ4vP7f5L6KxGl2lnpHhk1jQvy3uE1700JGkaBcywVBNUeFR/LnGbadzCMNMt9ROGvLXXnzgEK0XX2HK7DTUBw6hH5/LpKl3uPKhfU0NpyL7ADiHuv2W7fB6B1dz3atd2RtxL2oZ//Asu21/uXfX7e8JHjeJtA1b7bb99f5AvgCnq7luEBNDzX93MTdXjyYcnHr9gcbDQAdomIF9VSqee+4adU8DDKdmX1BPH6HjwEEaZqcy+lHoGBuNqvUcNbZD5Ee3Ejsb+yL7pidY9LdZTy5nXHg0Xx/YY+mBZz25nCmxcW5/l+Pc3G39NuT2linEod3sYlqQG+g8CHTghhng+G/VTP9tb05o2trBt188RWx0LndH96bCZiYPpYTjqofub6HhUR6F+daVi0yfl2iZm3ukfAPp5Z591Ocar3NB/wiPLYthwQ6bOXTyJNori/kvgDNXuZz8BM+mTeK/9ljn0NpYNZdLnOfkA5HbgdbMf5QJAKoYUrUxdu/VH9FRHEBzaXd0nDmHYdVsprR+QaVjhc3Te7gSv5Ypqw5gfJrWHa4Uf4EhZUy/t/Nq5QkmRsXyyJI0HlmSxl/v3+fG+UrGTnHvtKE5xNPnJTJ9nrUeUOCudPdEz9s7inkrM4U1bzzCGtNW+xXs66x593PjQtkb1k8OlKvAemPA3m01depULl++7O9mCBFQFHJzhhACJNBCKIoEWggFkUALoSASaCEURAIthIJIoIVQEAm0EAoigRZCQSTQQiiIBFoIBXH/bquQeDKWx6Cy2eT/qp8i8CXyz/ueYip17H9uK586vv2zV/iPZba1gwyc+vXb/OZP/dhEBXA/0E1HKdQdtb4OiSdjeSopLQP3TivRt5b+Wz7LptRx6pSBqY+72OFnr/Afy0Zz6tfZlgAv/bd8lr3+Ct/+yUX4RZe8H3Kbqn6qR2t80ByhOD97hWUc5B+f28qxLnZ5+MHRQAvf2vTGn56t64/WKY73RQKj5hKjMlB9cSAOuQOr6qdZkvYXBI+zPhni5jdnOP6RzvLasVqnmW0FEsfKoH+5d9eusGC/+c1W/rGHXb7JO87lfU+x7LcruPyTXXyzaAWbl4WhP7Vdemc3eRZoh3l0/REdR5t816j+E3hVP+Ne1HLrykVLMGc9udyuskhoeBTRi56hofYcxz/SWcr2/vleu1OYm+ouWX4I4l7UMjft526EehUffLKccFdv6U+R/+IGfDe9LeNXz5Wx9N/yeX1fLMb5c7bMnz3gWaDt5tGRpGi1aKf2b11unzFVI9HMWkzjTWOAjVU/ixyqftr3svpztbgqFO1U9TMl1Vj1s5eBtu2JARprz9uVGFJrjGOEJlOlT33Tt7Q23iA4dCLqkAfRN31L+OML+Mu9u1SV7bd8rvbUEULCphEaHtXLQH/Iq0/3V00w04KZvpJfP7cLct7i9dfzeXj+dtbm1fRTG5TBB4+TuEDxkQi0CyKI5AIDL9KBVfWzq+G0mb65AYCQKdMthfWDQyfy53vtdmWDRgSP5smsX7p1bH95OCfOGOaf7OIbgLy3+XXOW7z++Ap+tkhWut3hk+fDaEarwXAt4AoG9lagVP10HE6bt81N+7nTvuMfnmUpweuqeqf3tcH6b8g9VaOC27eMYTb55lgN+scjfHSEwcMHT86I58kZKgxVFwZsoAO56ufMpGctC1uAZTh96DfvdhnWpisXGRcezYzEZU5D+N7rvyH35WYDPB7HzxaVWU9bPRuLmjq7lW/RM/eLBEaloF0wwWaDgeq9hf2+KObzIoHjc4lZNRtVq+OKN1hWw4PNr+9wpfgcmpQxXDcvipk+3168hKuOVUPd4FhEv/HyBVSjx3LjfKXlUTjxGVmW516ZOa5iuxq6+2Wle9EKNr8ei6vCypf3Z/Or3xj/fjjnLV5/3OZyJdshuOg1qfo5wCRpf8EPh4+0G067WukWg5Ncy60AoVMjGT5Kzfdt3/m7KcLPpIceYBwvGDGzfUysGLwk0EIoiAy5hVAQCbQQCjJgh9xCCGfSQwuhIBJoIRREAi2EgkighVCQgR3oxHbOHrxG3cFrnN3Y6e/WCOF33gU6JJ4MrRatNoVIHzXILWUjmfnUZML2BqOe+x27Ev3RCCEChxeB1hCfHAMGg+9a4yndSI63fc9YuX1WDHIeB1oz/0liqOazSn3POwsh+oVngTYVNaivPDqAixoIoTweBTpydgyqG4cDqLD+EK43Q8Qj3dcZEULp3A90VAoLJ9ZzOMAqfGZnTSbs6w5Z8RaDmps1xSJJWTCB+iO6gKvumV9wjRcIJeypyf5uihB+497NGU71xBwYqikq9Me8upNdu+sZWzaZRE9r4gmhAO710OeL0TnOm6NS0C6Aw7rigOu1hRhsBvaVYkIIO97X5XbVawsh/EIZPbS2nbigEdySxyCJQc4nj8Lxm8R2zmbfRg3U7J3MijJ/N0gI/5ISREIoiDKG3EIIQAIthKJIoIVQEAm0EAoigRZCQSTQQiiIBFoIBZFAC6Eg7l8pFhJPxvIYVA6b64/oAqiCiRCDk4eXfhqo3lvI0SbfNkYI4R0ZcguhIBJoIRTEwyG3ipjlWmLML28cRhdgRQOFGIy8v9vKvEgmoRbC77wfcjcd5bMqA0yM8M/zrYQQFj6ZQ2uCVWBoladoCOFn3gc6KoWFE5HH4ggRANxfFHOqzV3PYV3gFd4XYjCSEkRCKIichxZCQSTQQiiIBFoIBZFAC6EgEmghFEQCLYSCSKCFUBAJtBAKIoEWQkEk0CLwJLZz9qCefIfNmRubqSvo8EuTBgrFXPqpfukA0VOtrxuKl3D1tP/a051hS/YQO3sUhi82U33gkL+bE2A6KDvYyNiKCczcMMSN99zVya7d9cQFAW1jeCd9JDu8/MZA4PnzoR2qfxqqiig85p/7rYYt2UP01FrO5b6C3i8tMMvkofWpEMA/JvaS0JUvgT1voi3oy+NEsOnj1cSc28aynJpu9utk1+5GImpDCXMZ2GEk5o/hbHY9ZdrJJOo8b1Hmxu+IYwzvPKWMIJt5FGjN/AxSZ0D1Xl0AVP5cTPD0URi+2OrnMPdex4E0Kg74uxUBSNtOXNAIjuuGdb1P2Ug+Tb3NC4ntZOo8D+O0kO/Rn/+RosIMnsyhQ+J5cgZSxlf4WCe7EluhVsWKsu73zC4agz7oNi9q+6dlA4nbPbRm+mRUhmtc8HeYH93K3JRw6+vZa5k7e63x79YvqHx/PR2mIfBIu7mqw7D40a3MTYFzH95m0qrZlimEqzm4ee5rYT7O+FxibD5LygHGpTjs46LNruf5iwl9bS1Tgq1b7ObabrS3S8kr2b8uFsu/JG0L5Wmmv9sqyXt+J+ZMJeZtIGee9bEKd044D5tXb99CeoTNBst3GIf008zb562mvNz8oo7dCR+wzfKh+4wNgpqybnpns7LhVGlhxvhOwNu5tLK4H+hgFbQ1o3lGS+pE81Y/FN4//QoVp8EcAM1FbxaYwoleBedyl6DHFNyUrbScts7JjYtud7jy4RIabzp8/OZ6qnOhxzm0pc2m/ZyYwtxSRMX7psHg+FxiVq0lBmz+fT23t1slO1lWspOe5tDGMLewO2GjKXhJ6MpXsz/PGurEvA2kh1SSl2D9EbAqRZtQSq/m0In3GcsIqrqbYlsM4XozxIXcx7NAd/BYONz6Wnk/Bp6dtpq4kIjLOnQ64/+KqiBmecoALhJ4hysfWsPQcavR/u3xuUyaCg3Fac5h9qVH05gSfIcr5TYzu5vrqfniDqrpi7H2XT201yeSSJ+n4tIe2160lN0nDIyKnkOi7a5BESQle3m4iE7U7n5Gc59Mtz7QQdnBa9Qd7ODLp7xbVAtUnq1y3zhs9xyr5mOnqZ+xkIgouKDY51vd4W5DfxynkbuufjSCxzAM6O+zsNNsh+NmbdY/y3I2Qt4GctZtoXwdgIGTmzayrsTNA9UMcX9Rs3mom4taw0h8ajLmYJftVV6o3Q50c6sBwjRowFoUMESDGgbMKvOA1Hq738MMcKkXp7TKcjbaz7nXbWATboa6bCi3sr9nbAS4GLs76GSSBvTnPT3rOowva2GpAufgbg+5m4+dpl4Vw9wo67bI2TGoDNVUBFzvXMPdVlBpzCs2xrnrOHe/5uYhmltHMWXV1h6GhcbjjYt2byBocforGggn+iWbz4/PJWL2KBqOru+DQF+lpQ2m/TjJxXulVNbAtLRXWe3GN5b9qYY7TltrqGvCeahuZyi32iDikV78KxPvMSNoBFVHlBVGX/DgJ+4CxXs1ZCzXol1g2mSopqgwEMv4HqJxz2I0q1KZa1qEaijezJX4tTzg7ve8f4i7Lx0ger3NCWTbFewujme7j+PVbJbV8MtFVPxuB7CDq7nAepvP05dXvdWwrqCS/euWUF6+xLjJZpV728tvwvYtpJdvId3mU7Yr3U4r3Bh7dcfeedvLB4gtX0JOeSw5gPMq9xBWlAVTt9zArsRh3Z66ylxwF3XbA5T32JMPPoq59FMogelyzOZQwrK6OH2V2M7Z7Nvc8nL+m19wjaVNvriENLDIzRkigAxhRXooNeGNnN3Y6eL9Dsqyb0PFBK8Xsy41jUA9t93pBpCBTgItAozxem1chC1zo4GI2lCf9Ko7Nmj4fW0rLxy8Rt3udjdPfwUuGXILoSDSQwuhIBJoIRRkwAZ66tSpPe8kxCAzYAMthHAmgRZCQSTQQiiIBFoEHlUu+5ZvRfkFSRaTl3yAbeN9942eFwkUfpLJ0o9zeDzI9LLtONufz6BP7uzMepXytDDLy97ceeW9TLYlz4Zzm7G/GEzNW5kpPKa+zn+/+zm1CSmsiYUvf1fM231xO7jXetPeQ+RUp1E6dw95JWnkGLw/qtuBjnxGy8KJrt7xQ9WSQWkHnz6/g0+BcXlneDm6Dw9V8AEJBWCpbNLnFpOXnEpEfRFJFxyrz+i58R081lMVhFlPsC8Z/vvdz/mvvmomAJN4740noKSQNWdcvd/L9t58hf99bg//krwV7d5X8Pb2bLcDfeGPOi44bDNWAdXTLGEW3hifxhzVHU5WKK0WZ/fKLxwkPTqVpZGL0Tn9kLnHB3PoSObOUGGoqnAKuhC9t5i8mHCoP9jl0LO2RQ/6FmqBI81tQBs3AnK4bdT79u5g97k7jIpO83rdwOs5tGb+o0ygnsN+KrLvK+PyzvDyPJvxkePcNLmQ19bFYS3GqefUpll8WmLz+egqtpeM5eW0CJf7uDwONfxPQhKVltcOc2Sg9UQe7+e422tt5h/KX2BKl8fxFWMBwDk27XWqDOpYZdTSpAMkvFxq+Z4xKqip7vrfeaS8mCPmqqFnPuc5m6HugoQU1sRa/3999o0MnjX93V5ZzMpyaz2dn6Zl8Kx1aYDLTsNm43Da9tIly3eExrDzpUcYafm3ZbDPXE9N/zXv7ajmSC/a66i8/hyvRUczWQV4MZf2MtDm3vmzAd07x26/yt9F6Dm16SG78FmYwvzdnod437QoNC7vDC+vOwPYBDYojpeTj7M9IYkG8/dmFVJZYvphyCrl5Xm3+J+EWV0EyxTmpt+T+/xam2Pn8FoeboTaGOYfncgj1/SZcXlneLm8FHwaalOYmw6Q8LwpmMkr2b/OtjJoErp1sXBiGwk5NfafsYQZUE1iHHeo9vA/Zkt4ephD/zQtg2d/9DXvvWsKXmgMO1/K4D3MoVbzVuYThFYW81y5i6JajdWsfLeanufQbjJcp4HZjPEy0F4Nuc298+mB3DsnF/JEBFzZM8t1mIHYv48juO04JTYrvA05H3CqTc20RbY33tXwPza9+rdNrqqsRTAjq4u2ZL3A40F6Tv1hrXVbSQa7T+gJjl7c69JJ4/KWMqXtOLttfgAacj7lSnfH9kTWUuYEGTj5B5tgluzk320rgyaH8iAGqv9k7rFrKD1ngJBQ+3JEqjHOPbivhcaQFKbny/3WXpTGakrrYOr0SXa7jgyfxAKnL+h749SLvfq8Fz20hsiwgd87G+lpvtTDLk3XXZ4aCg6JcLG1CwVJ5FLK+rSrrDdV0ryy5yH+r92poFs0uPphCRrLg9D701NBcbxcftVp85Xet7aXWqhz2d7RTAPKShr5dl0sMYsioMTYQydFq6Cp0b4WoOE2dwj1eeucqXnspQz2OW6uM/+h5+0dxbyVmcKaNx5hDTgNpftSg967RTHPAx01lxiVgeqLA7h39oHWpl5VhrcqSCLXHOAsY7j/AcdQu9B2i2/dOU5fnp/u1fFbsP2NHGX71Iwah+E2+GzI2TN9L85d63l7R6Hpb+P55DWZQF+G2ssph5mHQ24N8bET4MbpgX/eueQQl9rUPL6ulNgudqn8qgYiXuAfbIar4/Je5fGgGj53e7HKRsGX9j1mwZdcIYK/277Zui25kPR5aq6U9D6cDX+qojUojvS8nutwLNqwm08++YRPPtrIInfaDlBwnkuEkb7dpmpo8kr+aZ6KSyXGQoOJefOZ1lZJXsKbJJj/5xhmAGq4bYCISV7WDmlsoZ1JzJzl6r3rXNCreWxZjBvDaT2Ha11Nndr4Tu88VPdUwoRoRhnOUeZloD2qWGJ9+qT/LiSZOnUqly9f9tn3GRfGbDY49nBZpaxPs93BftXYuHp9y3lbdJXle5xXuF2tYDuuTjsMy51W280cVtRd7ue80r1ow26y54wC/SnyX9zAn2zec1XR0/g1tj2sw/OrcLyizHkV3Mix6icwfiulc0M56eVVU44r3var3OYruOw/Y13pdl7hhuuuF9kcV7w9HpovJi95LTHXN/Ocl+ehB2wJIl8HWvSN1du3GJ999bzts6+6WOk2/Yc9R19E0snBc3FJQuQe/iW6kT/44EoxuTlD9L/kOcQEwZ0mx0W7Q+SUFFEzIZV9kd6t9g4Y47fyL9FwssT7MIP00KLPOQ/JoYcbPVS57Esew6c+6LECm3FEMqZ6Cat99BBECbQQCiJDbiEURAIthIIM2CG3EMKZ9NBCKIgEWggFkUALoSASaCEUZGAHOrGdswevUXfwWhfPExZicPFslTsqBe2CCTYb/FzxU6unbvmfOZ6vYUVZz7sLoVTu3w8dlYJ2gZrqvTpLgCOf0bJweQrNumL/FDvQjeR4YitjIwAJtBjE3B5ya0arAfuSvRcu1/uwSUIIT7kd6OZjp6lnAgsz4tEAhMSTsWCClPEVIgB4UILoAsW6C0Q+oyVVG4Nx/qzzc+WSIVxvhrhHOoBh/myIEH7lwaJYJCnahUwwVFNUeBTmZ5A6Q4WhqohCf1f/1OqpW96KvmICMzcM8W9bhPAD9+fQ8x+1hLkZaD5WSFGVAdWMJ4kP6YMW9lJ+wTXqHhlG2FOTJcxi0HI/0MEqaGvGti9uvnitbws19qiTSRqo+VqG22Jwc39RrNUAEx+1640jZ8egQh5WJ83WxJgAAAipSURBVIS/ub0o1nyskCIySF2uJca80VBNke4og7tCtxD+51Gh/eZjheiO+bopQghvDexruc207cQFjeCWmw+xEEJpvH6crF8ltnM2+zZqoGbvZLmOWwx6UoJICAVRxpBbCAFIoIVQFAm0EAoigRZCQSTQQiiIBFoIBZFAC6EgEmghFMSzK8Ucqn4GRHEDIYQvqn5GkqJNJQMJtRD+5uaQW0N87AQMVZ/Z1BC7QPGRelRhkcaigUIIv/HNHLq5FYMqWAIthJ+5GehmLtQZUM2YS6Rlm4b45BhUqNH4saaYEMLDiiWHg7Us1GpZCICB6qp6mKH2eeOEEO7xaJX7wh919kX1o1KIMVzjgtQUE8KvfDCHNi2U1V2QmmJC+JmXgdYQn5FKDNV8JqeshPA794fcIfFkLI9BZXppqCpCJ2EWIiBICSIhFESu5RZCQSTQQiiIBFoIBZFAC6EgEmghFEQCLYSCSKCFUBAJtBAKIoEWQkEk0B7poOxgM7sS7bdmbmymrqDDP00SAgVd+rl6+xbSI6yvL+15E21BXxypk12764lrDiUsa5jDex2UHWxkbMUEZm4Y0hcHF6JbXdycEUmKdiETqOewrtj+3mdwukGDG4fR/dFpr36TmLeB9Ig6did8wLY+PlZ+QT1xjOEdpzADDCMxfwxns+sp004mUdfHjRHCgdOQO/IZLVptBK1VBtefMIWZqiJ0Oh063WHqJy5E+0yk6/37XARJ0SrunPi0z8NMYjtLw6GmbCQ7utqnbCSf1kJEYjuZfd0eIRzYBzoqhYUcRueqVzaJnB2DymB7/7Ox6icTHyVe4TXF8lNvo24bw0c99LzZRWPQB93mRW3/tEsIM/sh9/lidOe7212DJgiH6iSRpJiK7gdrgP4qQ5T1KuVpYdbX81ZTXm76u62SvOd3UgZABJs+Xs2cIOuud05sY1lOjXVD8kr2r4tllGWDgZObNrKuxPaAnUzSgP788K57Z7Oy4VRpYcb4TkDm0qL/uFngQEOwCvQtpjibnqBRf+Qw9QsWoh6tgf4qRFTwAQkFYA5szDmHkGJ9b07TARKeLzVuSl7J/nWr2Z9n2t8U5m9tFtES8zaQs24Dm7AN9X3GBsGtm70J6BCuN0NcyH0k0KI/eXjaSkN8hhZtbCtFOh3F3fbqfpS1lDlBBk7+odS6rWQn/37CwKjoOSQCq/8+llFtley2WREvy9nJyTYVMYtsls0T7zPW3eNr7ss8WvQrt+tytxpgwoJUgit16AqP2vXHlp47oLRQV+Jic9Boppn/bmo0Dc/tjQp5yPqibCi33D1089Ceh+dC+JDbgW5uAwzVVNj2ylERTKCemkDtqV1pa+FSD7vcabpq82oot9pg7PjOXny5ab7d5NmzAIXwlNtD7gtfVGNQxfDkfPODb4yLYoaqii5Xxv2m4DyXCCN9e5J1W/JK/mmeikslxkWzbV/VQcQSdFnWXRLzVjInqI5P7ObkxnmxOupez8PoxHvMCBpB1RGZP4v+ZX+lmOMFIzbqj9jMlV1U/vTfkye7WxQDSEJXvsQ6vMbFVWSOK+Z0cZFKYjtns29za2/3F41kbmzml1EP8E56N+erhegDirn0s7/kF1zjBc2YrsPay9AL0Rck0G6Ta7lF4JK7rdw2hBXpodSEG1zcbWUgojZUwiz8RnpoIRREemghFEQCLYSCSKCFUBAJtBAKIoEWQkEk0EIoiAS6ryS2c/agnny7jZ3s2n2NMqlkIvqIBLpPdFCWfRsqRpJtt30IK8qCiVjuXAJYCF/oItCRpGi1aLUpdFn6LySeDK0WbUY8mq726Q9Zr1Je/iqr+/xAEWz6eAv78yJ62K+TXbsbu75iTKfmnQqIy3bsvYXwnvtVP83VSpLh2o0+bt1ApG0nLmgEx4tclfk12rFBRQ2tLN3Ym3urheg9t6t+auY/yeS6IqdqJQKgk12JrVCrYoWrEigWw/ioYgTque3SSwufcrPqJzQfK6SwDxvUW4l5G8iZZ71zO718C+mmvx2revb8VA3ne6at3+Hwnm11Uaf7po2FBGvKuu6dzXYceYDX5t5lUiK4rH8khAcGbI2cspyNxhxkvUp5Gl0+NWP19i2kh1SSl2Aq65u8kv3rtqDDHOoINn28hAdPbCPBZYGEUrQJpfRcSAFTIcERVHXxtv0/YCi3sr9nbAQSaOEzyl7lTl7J0xEGThbstGamZCef1MC0HyfZ7WquAuqViE7Ubn6kdzXKhOidAdtD956KOeu2UL7OYXON9Y91z29j08erySmPJQccCvW7oWYIejc/0rs630L0ziAItKunYDiqYd3zb5r+Ng6tcz4G3A21O8Nod4bnQvTSwB9yX2rhDmHEZrl4r+Qk1W0q5mStdGM4XUPpOVen7Gqoa+ppaG4s9RvxSM/PiM5ccBd12wOUy/xZ+JD7VT9Nj79xZqB6byFH++vZVjYcV7ztV7mdn20FtivdzivcXVb9dNrXxX5aPXXL/8zxfE03p66MdclmnJfaY8K3pASRz3VXRNAoc2Mzv5z7Q37/lNrh0lAhvDPwh9wBx1xEsJGzrq4E0+r55Vw4ni9hFr4nge4Tw0jMHwNOV4IZrySr2dvdcFwIz8mQWwgFkR5aCAWRQAuhIBJoIRREAi2EgkighVAQCbQQCiKBFkJBJNBCKEgXt09GkqJdyATqOeyivphmfgapM6w3Qxiqiig8JhXGhPA3p0BHPqNl4cR6qqsMTJjh4hNRKaTO0HNYV2gMekg8GctTSWkx3Y0lhPAbt6t+cr7Y/v2mC1wzwISpXVbwFkL0E7erfgohApf3i2IhkUxWQf3lLvt0IUQ/8TLQkaQsj0FlqKZCenYh/M6LQJtWwg3VFMlTNIQICB4GWsIsRCDyINASZiECldtVPx0vKnG1jxDCP6QEkRAKItdyC6EgEmghFEQCLYSCSKCFUBAJtBAKIoEWQkEk0EIoyP8HGo8WcpO4GP4AAAAASUVORK5CYII=;" vertex="1" parent="1">
                    <mxGeometry x="1010" y="112" width="244" height="268" as="geometry"/>
                </mxCell>
            </root>
        </mxGraphModel>
    </diagram>
</mxfile>